#!OML:ASF F:\VICON\USERDATA\Patient Classification 1\PLAYGROUND\JustinFriday\JustinFriday.ASF
:FULLY-SPECIFIED
:DEGREES
4235
root 27.6814 28.7127 -4.13973 -37.3666 -6.39426 9.14906
lowerback 40.0822 2.99602 -2.11257
upperback 12.5105 2.29975 -5.45574
thorax -5.31777 1.24094 -5.57215
lowerneck 18.4182 -4.10678 -12.5369
upperneck 13.6101 -7.38056 -1.24065
head 1.85866 -4.21879 1.9913
rclavicle 8.84592e-015 -3.81667e-014
rhumerus 58.2002 0.846576 -76.0204
rradius 114.385
rwrist 24.5135
rhand -11.1359 -28.5331
rfingers 7.12502
rthumb 14.8895 -57.978
lclavicle 8.84592e-015 -3.81667e-014
lhumerus 38.6568 39.577 36.4278
lradius 85.536
lwrist 8.23957
lhand -6.3824 -8.82975
lfingers 7.12502
lthumb 19.4647 20.216
rfemur -37.5299 -2.61671 25.117
rtibia 83.0784
rfoot 4.80629 -7.729
rtoes 6.94409
lfemur -50.3748 18.3457 -1.26225
ltibia 108.949
lfoot 8.95088 -21.2886
ltoes 4.80112
4236
root 27.7205 28.6932 -4.13441 -37.4873 -6.48738 9.11166
lowerback 39.9284 2.88071 -2.38683
upperback 12.5469 2.05212 -5.47468
thorax -5.25213 1.11017 -5.34969
lowerneck 18.7477 -4.07904 -12.7182
upperneck 13.1628 -7.45438 -1.12321
head 1.67 -4.24431 2.08607
rclavicle 6.7885e-014 -1.66979e-014
rhumerus 58.1425 0.840946 -76.2129
rradius 114.281
rwrist 23.8622
rhand -11.3652 -28.5197
rfingers 7.12502
rthumb 14.6686 -57.9808
lclavicle 6.7885e-014 -1.66979e-014
lhumerus 38.2121 39.9833 35.9465
lradius 86.0287
lwrist 8.11682
lhand -6.22171 -8.40815
lfingers 7.12502
lthumb 19.6192 20.6219
rfemur -37.7426 -2.64343 24.5293
rtibia 82.9525
rfoot 4.81596 -7.59242
rtoes 7.16079
lfemur -50.0561 18.0045 -2.28169
ltibia 108.383
lfoot 9.0184 -20.429
ltoes 5.28671
4237
root 27.7653 28.6666 -4.13025 -37.3859 -7.06372 8.77823
lowerback 39.8385 2.84882 -2.22393
upperback 12.4732 2.07831 -5.34897
thorax -5.30492 1.11602 -5.30816
lowerneck 18.7153 -4.13512 -12.9784
upperneck 13.0945 -7.59857 -0.717108
head 1.69094 -4.32944 2.27622
rclavicle 8.64713e-015 4.77083e-015
rhumerus 58.0077 0.723105 -76.2354
rradius 114.175
rwrist 23.3919
rhand -11.5794 -28.6987
rfingers 7.12502
rthumb 14.4623 -58.1748
lclavicle 8.64713e-015 4.77083e-015
lhumerus 38.2863 40.1626 36.1181
lradius 86.5723
lwrist 8.17748
lhand -6.10036 -7.85649
lfingers 7.12502
lthumb 19.7359 21.1616
rfemur -38.2085 -2.40092 24.5603
rtibia 82.8345
rfoot 5.01125 -7.64402
rtoes 7.64424
lfemur -49.9321 18.2292 -2.68044
ltibia 107.878
lfoot 9.0168 -19.9325
ltoes 5.77165
4238
root 27.8057 28.6422 -4.12802 -37.2181 -7.74423 8.14855
lowerback 39.7799 2.78407 -1.86311
upperback 12.3746 2.14653 -5.11863
thorax -5.39109 1.14263 -5.27503
lowerneck 18.7212 -4.23192 -13.1517
upperneck 12.8931 -7.79001 -0.320826
head 1.65902 -4.42746 2.45419
rclavicle -2.18663e-015 3.18055e-014
rhumerus 57.9688 0.51908 -76.2002
rradius 113.963
rwrist 22.7851
rhand -11.8377 -28.9048
rfingers 7.12502
rthumb 14.2134 -58.3985
lclavicle -2.18663e-015 3.18055e-014
lhumerus 38.4581 40.257 36.3737
lradius 87.0381
lwrist 8.23842
lhand -6.0479 -7.54118
lfingers 7.12502
lthumb 19.7863 21.4717
rfemur -38.6614 -2.20847 24.9307
rtibia 82.6765
rfoot 5.10376 -7.61038
rtoes 7.40816
lfemur -49.8519 18.4896 -2.64321
ltibia 107.405
lfoot 9.09722 -19.5858
ltoes 6.09737
4239
root 27.8381 28.6234 -4.12491 -37.3706 -7.86498 7.8915
lowerback 39.5118 2.5573 -1.97728
upperback 12.4698 1.83473 -5.0869
thorax -5.2277 0.983622 -5.05308
lowerneck 19.0979 -4.10397 -13.7286
upperneck 12.4048 -7.82784 0.133293
head 1.48104 -4.45437 2.74267
rclavicle 3.53837e-014 -5.24792e-014
rhumerus 58.0226 0.765223 -76.3897
rradius 113.698
rwrist 22.031
rhand -12.2275 -28.9498
rfingers 7.12502
rthumb 13.8378 -58.4695
lclavicle 3.53837e-014 -5.24792e-014
lhumerus 37.9515 40.6627 35.852
lradius 87.4958
lwrist 8.33914
lhand -5.62743 -7.27568
lfingers 7.12502
lthumb 20.1905 21.695
rfemur -38.7421 -2.17856 24.5142
rtibia 82.5012
rfoot 4.87465 -7.75074
rtoes 9.42306
lfemur -49.4352 18.2206 -3.25791
ltibia 106.913
lfoot 9.01662 -19.0594
ltoes 6.42372
4240
root 27.8693 28.6153 -4.12485 -37.6086 -7.73659 7.87069
lowerback 40.2309 2.92216 -2.47763
upperback 12.3425 2.07227 -4.85234
thorax -5.5805 1.07775 -4.65683
lowerneck 18.1443 -4.812 -13.4514
upperneck 13.1134 -8.558 0.402804
head 1.9367 -4.84151 2.75028
rclavicle -1.48095e-014 4.69132e-014
rhumerus 57.7423 -0.186494 -76.1247
rradius 113.451
rwrist 21.3583
rhand -12.6813 -28.8538
rfingers 7.12502
rthumb 13.4004 -58.4028
lclavicle -1.48095e-014 4.69132e-014
lhumerus 38.7269 40.2998 36.7183
lradius 88.059
lwrist 8.46114
lhand -5.1013 -6.65256
lfingers 7.12502
lthumb 20.6961 22.2639
rfemur -38.6189 -2.113 23.6821
rtibia 82.2221
rfoot 4.61289 -7.94032
rtoes 11.5635
lfemur -48.8014 17.7468 -4.30519
ltibia 106.267
lfoot 9.11754 -18.3279
ltoes 7.37654
4241
root 27.9044 28.6058 -4.12385 -37.6517 -7.94603 7.50918
lowerback 39.8507 2.7044 -2.39495
upperback 12.4349 1.86061 -4.78189
thorax -5.37598 0.971143 -4.52949
lowerneck 18.8087 -4.64154 -13.3778
upperneck 12.1855 -8.43954 0.173855
head 1.48101 -4.73557 2.70354
rclavicle -5.58585e-014 9.46215e-014
rhumerus 57.6989 -0.132514 -76.3369
rradius 113.166
rwrist 20.668
rhand -13.1471 -28.6951
rfingers 7.12502
rthumb 12.9514 -58.2731
lclavicle -5.58585e-014 9.46215e-014
lhumerus 38.288 40.4038 36.3104
lradius 88.6024
lwrist 8.41522
lhand -5.30622 -6.1199
lfingers 7.12502
lthumb 20.4992 22.8179
rfemur -38.6502 -1.97661 23.4518
rtibia 81.9087
rfoot 4.67268 -7.87814
rtoes 10.8293
lfemur -48.3019 17.614 -4.79113
ltibia 105.622
lfoot 9.08381 -17.8509
ltoes 7.94847
4242
root 27.9421 28.5808 -4.11843 -37.6099 -8.45495 6.84147
lowerback 39.6343 2.27274 -1.95791
upperback 12.4283 1.49851 -4.70657
thorax -5.33878 0.796083 -4.53314
lowerneck 19.2556 -4.34205 -14.2485
upperneck 11.8007 -8.35212 0.967261
head 1.29738 -4.71242 2.85994
rclavicle -1.16289e-014 2.38542e-014
rhumerus 57.7015 0.305171 -76.6203
rradius 112.935
rwrist 19.9264
rhand -13.3302 -28.6734
rfingers 7.12502
rthumb 12.7749 -58.2625
lclavicle -1.16289e-014 2.38542e-014
lhumerus 37.5068 40.7752 35.4846
lradius 89.0904
lwrist 8.39605
lhand -5.37668 -5.77172
lfingers 7.12502
lthumb 20.4315 23.1734
rfemur -38.7878 -1.81635 23.7374
rtibia 81.6201
rfoot 4.89984 -7.82218
rtoes 10.019
lfemur -47.9656 17.8084 -4.71841
ltibia 105.124
lfoot 8.75129 -17.791
ltoes 7.01314
4243
root 27.9799 28.5525 -4.11085 -37.5058 -8.857 6.25351
lowerback 39.9168 2.45827 -1.75359
upperback 12.2653 1.81703 -4.36705
thorax -5.58828 0.940269 -4.40786
lowerneck 19.1204 -4.90253 -13.8834
upperneck 12.0032 -8.99296 1.05524
head 1.41145 -5.0258 2.83807
rclavicle 2.32578e-014 -1.90833e-014
rhumerus 57.2041 -0.557383 -76.4814
rradius 112.826
rwrist 19.2154
rhand -13.379 -28.4358
rfingers 7.12502
rthumb 12.7279 -58.0279
lclavicle 2.32578e-014 -1.90833e-014
lhumerus 38.1587 40.4532 36.1366
lradius 89.65
lwrist 8.66431
lhand -4.81172 -5.37227
lfingers 7.12502
lthumb 20.9743 23.5136
rfemur -38.9765 -1.7156 23.8346
rtibia 81.3257
rfoot 4.97381 -7.88332
rtoes 10.8384
lfemur -47.7492 17.9243 -4.83816
ltibia 104.635
lfoot 8.62913 -17.588
ltoes 6.05125
4244
root 28.0187 28.5339 -4.10808 -37.3582 -9.20115 5.74326
lowerback 39.1294 2.27963 -1.48708
upperback 12.3766 1.74544 -4.22588
thorax -5.22423 0.905501 -4.34513
lowerneck 20.2126 -4.86742 -14.3911
upperneck 11.1365 -9.25344 1.62592
head 1.06493 -5.14689 3.14328
rclavicle 1.83876e-014 1.82882e-014
rhumerus 56.8537 -0.609087 -76.891
rradius 112.818
rwrist 18.6639
rhand -13.3442 -28.1004
rfingers 7.12502
rthumb 12.7614 -57.6904
lclavicle 1.83876e-014 1.82882e-014
lhumerus 38.0152 40.5558 35.9865
lradius 90.2075
lwrist 8.79801
lhand -4.54955 -5.04614
lfingers 7.12502
lthumb 21.2262 23.8117
rfemur -39.164 -1.63905 23.7976
rtibia 80.9689
rfoot 4.98064 -7.90623
rtoes 11.3783
lfemur -47.5722 17.9868 -5.09655
ltibia 104.122
lfoot 8.48171 -17.3632
ltoes 4.85644
